<svg xmlns="http://www.w3.org/2000/svg" xmlns:xlink="http://www.w3.org/1999/xlink" version="1.1" x="0px" y="0px" width="100px" height="100px" viewBox="0 0 100 100" enable-background="new 0 0 100 100" xml:space="preserve"><g><polygon fill="#000000" points="33,67.7 45,72.5 45,69.4 38.1,66.6 45,63.6 45,60.5 33,65.3"/><polygon fill="#000000" points="45.9,73.7 48.5,74.5 55.5,57 52.9,56.1"/><polygon fill="#000000" points="57,63.6 63.9,66.6 57,69.4 57,72.5 69,67.7 69,65.3 57,60.5"/><path fill="#000000" d="M19.766 35h-2.493l-0.657 4h-1.768l0.656-4h-2.516l-0.657 4H10v2h2.038l-0.34 3H10v2h1.38l-0.656 4h2.493 l0.657-4h1.79l-0.657 4H17.5l0.68-4H20v-2h-1.525l0.317-3H21v-2h-1.869L19.766 35z M15.981 44h-1.768l0.295-3h1.791L15.981 44z"/><path fill="#000000" d="M96.223 15H3.777C1.691 15 0 16.7 0 18.777v64.445C0 85.3 1.7 87 3.8 87h92.445 c2.086 0 3.777-1.691 3.777-3.777V18.777C100 16.7 98.3 15 96.2 15z M23.048 19.544c1.368 0 2.5 1.1 2.5 2.5 c0 1.369-1.111 2.479-2.479 2.479s-2.479-1.109-2.479-2.479C20.569 20.7 21.7 19.5 23 19.544z M15.494 19.5 c1.369 0 2.5 1.1 2.5 2.479c0 1.369-1.11 2.479-2.479 2.479c-1.368 0-2.479-1.109-2.479-2.479 C13.015 20.7 14.1 19.5 15.5 19.544z M7.94 19.544c1.368 0 2.5 1.1 2.5 2.479c0 1.369-1.11 2.479-2.479 2.5 s-2.479-1.109-2.479-2.479C5.461 20.7 6.6 19.5 7.9 19.544z M94 76.059C94 78.2 92.2 80 90.1 80H7.942 C5.765 80 4 78.2 4 76.059V32.941C4 30.8 5.8 29 7.9 29h82.115C92.235 29 94 30.8 94 32.941V76.059z"/><path fill="#000000" d="M75.367 36.812C74.879 37.3 75 38.1 75 38.972v3.391c0 0.278-0.404 0.509-0.484 0.7 c-0.08 0.186-0.473 0.327-0.599 0.427c-0.125 0.099-0.275 0.168-0.434 0.208C73.324 43.7 73 43.8 73 43.75v2.182 c0 0 0.3 0 0.5 0.06c0.159 0 0.4 0.1 0.5 0.218c0.125 0.1 0.5 0.3 0.5 0.4 C74.618 46.8 75 47.1 75 47.4v3.311c0 0.899-0.121 1.3 0.4 1.818C75.857 53.1 76.2 53 77 53H80v-2h-1.377 c-0.383 0-0.487 0.156-0.599-0.094C77.911 50.7 78 50.7 78 50.375v-3.233c0-0.437-0.24-0.796-0.371-1.081 s-0.35-0.512-0.541-0.685c-0.191-0.171-0.328-0.297-0.54-0.376C76.336 44.9 76 44.9 76 44.861v-0.039 c0-0.014 0.256-0.066 0.465-0.159c0.214-0.093 0.414-0.225 0.605-0.397c0.192-0.171 0.501-0.393 0.632-0.665 C77.834 43.3 78 43 78 42.621v-3.312c0-0.29-0.089-0.621 0.024-0.872C78.136 38.2 78.2 38 78.6 38H80v-2h-3.016 C76.151 36 75.9 36.3 75.4 36.812z"/><path fill="#000000" d="M89.083 43.484c-0.126-0.1-0.519-0.241-0.599-0.427C88.404 42.9 88 42.6 88 42.363v-3.391 c0-0.899 0.121-1.631-0.367-2.161C87.143 36.3 86.8 36 86 36H83v2h1.377c0.383 0 0.5 0.2 0.6 0.4 C85.089 38.7 85 39 85 39.309v3.312c0 0.4 0.2 0.7 0.3 0.981c0.131 0.3 0.4 0.5 0.6 0.7 c0.191 0.2 0.4 0.3 0.6 0.397C86.744 44.8 87 44.8 87 44.822v0.039c0 0.014-0.336 0.06-0.548 0.1 c-0.212 0.08-0.349 0.205-0.54 0.377s-0.41 0.4-0.541 0.685S85 46.7 85 47.143v3.232c0 0.3 0.1 0.279-0.024 0.5 C84.864 51.2 84.8 51 84.4 51H83v2h3.016c0.833 0 1.1 0.1 1.617-0.471C88.121 52 88 51.6 88 50.711V47.4 c0-0.305 0.382-0.553 0.46-0.744c0.079-0.191 0.417-0.34 0.542-0.446c0.127-0.106 0.34-0.179 0.499-0.218 C89.658 46 90 45.9 90 45.932V43.75c0 0-0.324-0.019-0.483-0.059C89.358 43.7 89.2 43.6 89.1 43.484z"/></g></svg>