<svg xmlns="http://www.w3.org/2000/svg" xmlns:xlink="http://www.w3.org/1999/xlink" version="1.1" x="0px" y="0px" width="100px" height="100px" viewBox="0 0 100 100" enable-background="new 0 0 100 100" xml:space="preserve"><g><g><rect x="0" y="84.3" width="71.1" height="2.7"/><polygon points="59.9,71.7 11.2,71.7 0,83.4 71.1,83.4"/></g><path d="M74.212 77.734c-3.25-3.688-1.835-5.599 1.388-5.994c3.223-0.393 6.1 2.2 8.2 4.4 c2.078 2.2 3.4 5.9 0.2 6.21C78.896 82.9 75.5 79.2 74.2 77.734z"/><path d="M74.123 15.43v51.292H100V15.43H74.123z M77.221 19.057H96.9v2.486h-19.68V19.057z M96.158 22.759v1.061h-3.221v-1.061 H96.158z M77.563 63.504h-0.686v-5.321h0.686V63.504z M79.751 63.504h-0.688v-5.321h0.688V63.504z M81.935 63.504H81.25v-5.321 h0.685V63.504z M84.124 63.504h-0.688v-5.321h0.688V63.504z M84.863 32.338h11.295v1.062H84.863V32.338z M86.31 63.506h-0.688 v-5.32h0.688V63.506z M88.496 63.506h-0.686v-5.32h0.686V63.506z M90.683 63.506h-0.688v-5.32h0.688V63.506z M92.871 63.506h-0.69 v-5.323h0.69V63.506z M93.014 43.235h3.574v3.573h-3.574V43.235z M95.056 63.506H94.37v-5.32h0.686V63.506z M97.244 63.506h-0.688 v-5.32h0.688V63.506z"/><path d="M65.073 53.479V13.013H6.001v40.466h25.801v7.001c-5.249 0.216-9.063 0.87-9.063 1.646v2.877 c0 0.9 5.7 1.7 12.8 1.72c7.066 0 12.797-0.771 12.797-1.72v-2.877c0-0.775-3.82-1.43-9.063-1.646v-7.001H65.073z M59.283 51.906c-0.592 0-1.076-0.481-1.076-1.074c0-0.593 0.484-1.075 1.076-1.075c0.595 0 1.1 0.5 1.1 1.1 C60.356 51.4 59.9 51.9 59.3 51.906z M10.707 16.812h49.654v31.345H10.707V16.812z"/></g></svg>