<svg xmlns="http://www.w3.org/2000/svg" xmlns:xlink="http://www.w3.org/1999/xlink" version="1.1" x="0px" y="0px" width="100px" height="100px" viewBox="0 0 100 100" enable-background="new 0 0 100 100" xml:space="preserve"><path fill="#000000" d="M50.038 4.25H10.5V100h39.538V4.25z M26.22 91.796h-8.336v-7.86h8.336V91.796z M34.423 68.018v7.86h-8.336 v-7.86H34.423z M34.186 43.96H25.85V36.1h8.336V43.96z M42.529 91.698h-8.336v-7.86h8.336V91.698z M42.761 59.68h-8.336V51.82h8.336 V59.68z M33.473 19.849h8.336v7.86h-8.336V19.849z M17.884 19.97h8.336v7.861h-8.336V19.97z M17.751 51.82h8.336v7.859h-8.336V51.82 z"/><path fill="#000000" d="M82.111 43.872V28.54h-8.008V13.892h-2.929V0h-2.344v13.892H68.83V28.54h-8.105v15.332h-8.008v56.055h37.5 V43.872H82.111z M68.994 91.991h-8.337v-7.86h8.337V91.991z M69.189 75.585h-8.338v-7.86h8.338V75.585z M69.189 59.854h-8.338v-7.86 h8.338V59.854z M82.275 91.992h-8.338v-7.86h8.338V91.992z M82.275 75.585h-8.338v-7.86h8.338V75.585z M82.568 59.861H74.23v-7.86 h8.338V59.861z"/></svg>