<svg viewBox="0 0 64 64" fill="none" xmlns="http://www.w3.org/2000/svg"><path fill-rule="evenodd" clip-rule="evenodd" d="M17.64 23.52l-3.503-1.41v-2.99h8.183v11.53H18.4l-.12-2.315c-1.177 1.886-3.204 2.622-5.276 2.622C7.668 30.957 5 26.633 5 20.224 5 13.385 8.562 9 14.376 9c4.56 0 6.692 2.438 7.586 4.876l-4.382 1.763c-.656-1.702-1.61-2.499-3.443-2.499-2.564 0-3.98 2.576-3.98 7.023 0 4.462 1.431 6.654 4.04 6.654 1.61 0 3.383-1.288 3.443-3.296zm12.505 3.113h9.197v4.033H25.107V9.306h13.996v4.018h-8.958v4.585h6.47v3.971h-6.47v4.753zM53.1 30.651l-6.708-13.172v13.187h-4.56V9.306h5.157l6.588 13.295V9.307h4.56V30.65H53.1zM53.03 34v8.357h-5.992V34H42v21.344h5.038v-8.05l2.966-1.227 3.026 1.227v8.05h5.038V34H53.03z" fill="#fff"/><path d="M5 42.092L21 36l16 6.092V55H5V42.092z" fill="#F95051"/></svg>