<?xml version="1.0" standalone="no"?>
<!DOCTYPE svg PUBLIC "-//W3C//DTD SVG 20010904//EN"
 "http://www.w3.org/TR/2001/REC-SVG-20010904/DTD/svg10.dtd">
<svg version="1.0" xmlns="http://www.w3.org/2000/svg"
 width="700.000000pt" height="700.000000pt" viewBox="0 0 700.000000 700.000000"
 preserveAspectRatio="xMidYMid meet">
<metadata>
Created by potrace 1.11, written by Peter Selinger 2001-2013
</metadata>
<g transform="translate(0.000000,700.000000) scale(0.100000,-0.100000)"
fill="#000000" stroke="none">
<path d="M3015 6991 c-5 -9 -62 -187 -90 -281 -7 -25 -54 -175 -105 -335 -110
-347 -193 -613 -225 -715 -13 -41 -50 -160 -83 -265 -33 -104 -72 -228 -87
-275 -194 -617 -317 -1008 -365 -1160 -60 -189 -108 -342 -255 -810 -46 -146
-161 -510 -255 -810 -95 -300 -178 -565 -185 -590 -8 -25 -69 -222 -138 -439
-123 -389 -125 -395 -171 -448 -86 -97 -224 -176 -428 -243 -166 -55 -401
-110 -533 -125 -27 -3 -60 -8 -72 -11 l-23 -4 0 -230 0 -230 849 0 848 0 15
52 c25 84 129 421 135 438 3 8 7 20 8 25 2 6 12 39 23 75 11 36 64 204 117
375 53 171 114 369 137 440 22 72 51 166 65 210 14 44 37 121 53 170 15 50 40
131 55 180 14 50 33 108 40 130 8 22 32 99 54 170 22 72 72 234 111 360 39
127 87 282 106 345 37 119 73 234 119 380 15 47 29 92 31 100 2 8 15 51 29 95
24 78 40 128 145 465 28 91 53 170 54 175 2 11 41 134 109 350 22 72 42 135
43 140 1 6 18 62 39 125 20 63 38 122 40 130 2 8 16 53 30 100 15 47 37 119
50 160 13 41 45 146 72 232 26 87 50 158 53 158 5 0 122 -368 348 -1090 35
-113 76 -245 92 -295 16 -49 51 -162 78 -250 116 -370 452 -1441 512 -1630 15
-49 49 -157 75 -240 26 -82 71 -226 100 -320 30 -93 104 -330 165 -525 61
-195 134 -427 161 -515 28 -88 73 -232 101 -320 27 -88 58 -185 67 -215 10
-30 26 -83 36 -117 l19 -63 898 0 898 0 0 229 0 229 -27 6 c-16 3 -46 8 -68
11 -35 5 -88 14 -182 31 -64 12 -263 64 -333 87 -230 77 -405 189 -469 301
-13 22 -68 182 -123 355 -139 439 -224 707 -265 836 -19 61 -47 151 -63 200
-38 122 -198 628 -270 855 -64 204 -73 233 -75 240 -1 3 -4 12 -8 20 -3 8 -29
89 -57 180 -52 166 -102 326 -165 520 -37 117 -84 266 -270 855 -205 646 -312
987 -382 1205 -184 581 -214 677 -214 682 0 2 -10 32 -23 68 l-24 65 -470 3
c-289 1 -473 -1 -477 -7z"/>
</g>
</svg>
