<svg version="1.0" xmlns="http://www.w3.org/2000/svg" width="933.333" height="933.333" viewBox="0 0 700 700"><path d="M301.5.9c-.5.9-6.2 18.7-9 28.1-.7 2.5-5.4 17.5-10.5 33.5-11 34.7-19.3 61.3-22.5 71.5-1.3 4.1-5 16-8.3 26.5-3.3 10.4-7.2 22.8-8.7 27.5-19.4 61.7-31.7 100.8-36.5 116-6 18.9-10.8 34.2-25.5 81-4.6 14.6-16.1 51-25.5 81-9.5 30-17.8 56.5-18.5 59-.8 2.5-6.9 22.2-13.8 43.9-12.3 38.9-12.5 39.5-17.1 44.8-8.6 9.7-22.4 17.6-42.8 24.3-16.6 5.5-40.1 11-53.3 12.5-2.7.3-6 .8-7.2 1.1L0 652v46h169.7l1.5-5.2c2.5-8.4 12.9-42.1 13.5-43.8.3-.8.7-2 .8-2.5.2-.6 1.2-3.9 2.3-7.5 1.1-3.6 6.4-20.4 11.7-37.5 5.3-17.1 11.4-36.9 13.7-44 2.2-7.2 5.1-16.6 6.5-21 1.4-4.4 3.7-12.1 5.3-17 1.5-5 4-13.1 5.5-18 1.4-5 3.3-10.8 4-13 .8-2.2 3.2-9.9 5.4-17 2.2-7.2 7.2-23.4 11.1-36 3.9-12.7 8.7-28.2 10.6-34.5 3.7-11.9 7.3-23.4 11.9-38 1.5-4.7 2.9-9.2 3.1-10 .2-.8 1.5-5.1 2.9-9.5 2.4-7.8 4-12.8 14.5-46.5 2.8-9.1 5.3-17 5.4-17.5.2-1.1 4.1-13.4 10.9-35 2.2-7.2 4.2-13.5 4.3-14 .1-.6 1.8-6.2 3.9-12.5 2-6.3 3.8-12.2 4-13 .2-.8 1.6-5.3 3-10 1.5-4.7 3.7-11.9 5-16 1.3-4.1 4.5-14.6 7.2-23.2 2.6-8.7 5-15.8 5.3-15.8.5 0 12.2 36.8 34.8 109 3.5 11.3 7.6 24.5 9.2 29.5 1.6 4.9 5.1 16.2 7.8 25 11.6 37 45.2 144.1 51.2 163 1.5 4.9 4.9 15.7 7.5 24 2.6 8.2 7.1 22.6 10 32 3 9.3 10.4 33 16.5 52.5s13.4 42.7 16.1 51.5c2.8 8.8 7.3 23.2 10.1 32 2.7 8.8 5.8 18.5 6.7 21.5 1 3 2.6 8.3 3.6 11.7l1.9 6.3H698v-45.8l-2.7-.6c-1.6-.3-4.6-.8-6.8-1.1-3.5-.5-8.8-1.4-18.2-3.1-6.4-1.2-26.3-6.4-33.3-8.7-23-7.7-40.5-18.9-46.9-30.1-1.3-2.2-6.8-18.2-12.3-35.5-13.9-43.9-22.4-70.7-26.5-83.6-1.9-6.1-4.7-15.1-6.3-20-3.8-12.2-19.8-62.8-27-85.5-6.4-20.4-7.3-23.3-7.5-24-.1-.3-.4-1.2-.8-2-.3-.8-2.9-8.9-5.7-18-5.2-16.6-10.2-32.6-16.5-52-3.7-11.7-8.4-26.6-27-85.5-20.5-64.6-31.2-98.7-38.2-120.5-18.4-58.1-21.4-67.7-21.4-68.2 0-.2-1-3.2-2.3-6.8L396.2.5l-47-.3c-28.9-.1-47.3.1-47.7.7z"/></svg>