<svg width="722" height="897" xmlns="http://www.w3.org/2000/svg"><title>BackBone.JS</title><g stroke="#848484" fill="#D8D8D8" fill-rule="evenodd"><path d="M0 0v485l361 205.785v-139.882l-241.504-137.667v-216.235l241.504 137.667v-128.882l-361-205.785zm0 0" id="Path" fill="#002A41"/><path d="M722 0v485l-361 205.785v-139.882l241.504-137.667v-216.235l-241.504 137.667v-128.882l361-205.785zm0 0" id="Path" fill="#0071B5"/><path d="M0 896.785v-485l361-205.785v139.882l-241.504 137.667v205.235l241.504-137.667v139.882l-361 205.785zm0 0" id="Path" fill="#0071B5"/><path d="M722 896.785v-485l-361-205.785v139.882l241.504 137.667v205.235l-241.504-137.667v139.882l361 205.785zm0 0" fill="#002A41"/></g></svg>