<?xml version="1.0" encoding="UTF-8" standalone="no"?>
<!-- Created with Inkscape (http://www.inkscape.org/) -->

<svg
   xmlns:dc="http://purl.org/dc/elements/1.1/"
   xmlns:cc="http://creativecommons.org/ns#"
   xmlns:rdf="http://www.w3.org/1999/02/22-rdf-syntax-ns#"
   xmlns:svg="http://www.w3.org/2000/svg"
   xmlns="http://www.w3.org/2000/svg"
   xmlns:sodipodi="http://sodipodi.sourceforge.net/DTD/sodipodi-0.dtd"
   xmlns:inkscape="http://www.inkscape.org/namespaces/inkscape"
   version="1.1"
   width="260.85126"
   height="200.38499"
   id="svg2"
   xml:space="preserve"
   inkscape:version="0.48.4 r9939"
   sodipodi:docname="karma.svg"><sodipodi:namedview
     pagecolor="#ffffff"
     bordercolor="#666666"
     borderopacity="1"
     objecttolerance="10"
     gridtolerance="10"
     guidetolerance="10"
     inkscape:pageopacity="0"
     inkscape:pageshadow="2"
     inkscape:window-width="1920"
     inkscape:window-height="1023"
     id="namedview19"
     showgrid="false"
     fit-margin-top="0"
     fit-margin-left="0"
     fit-margin-right="0"
     fit-margin-bottom="0"
     inkscape:zoom="1.3405091"
     inkscape:cx="516.22518"
     inkscape:cy="143.70337"
     inkscape:window-x="0"
     inkscape:window-y="30"
     inkscape:window-maximized="1"
     inkscape:current-layer="g12" /><metadata
     id="metadata8"><rdf:RDF><cc:Work
         rdf:about=""><dc:format>image/svg+xml</dc:format><dc:type
           rdf:resource="http://purl.org/dc/dcmitype/StillImage" /></cc:Work></rdf:RDF></metadata><defs
     id="defs6"><clipPath
       id="clipPath18"><path
         d="m 0,0 6874.96,0 0,1603 L 0,1603 0,0 z"
         inkscape:connector-curvature="0"
         id="path20" /></clipPath></defs><g
     transform="matrix(1.25,0,0,-1.25,0,200.385)"
     id="g10"><g
       transform="scale(0.1,0.1)"
       id="g12"><path
         d="M 1247.1,497.781 1580.77,0 2086.81,0 1494.58,875.016 1247.1,497.781"
         inkscape:connector-curvature="0"
         id="path30"
         style="fill:#429f87;fill-opacity:1;fill-rule:nonzero;stroke:none" /><path
         d="M 240.547,221.488 474.922,442.281 849.641,0 609.094,887.191 387.129,556.289 240.547,221.488"
         inkscape:connector-curvature="0"
         id="path32"
         style="fill:#429f87;fill-opacity:1;fill-rule:nonzero;stroke:none" /><path
         d="M 240.547,221.488 609.094,887.191 374.773,666.297 0,1108.59 240.547,221.488"
         inkscape:connector-curvature="0"
         id="path34"
         style="fill:#56c5a8;fill-opacity:1;fill-rule:nonzero;stroke:none" /><path
         d="m 2038.56,1603.08 -506.04,0 -309.93,-457.92 0,457.92 -464.184,0 0,-474.93 L 1005.9,216.012 1063.58,0 l 159.01,0 0,400.781 815.97,1202.299"
         inkscape:connector-curvature="0"
         id="path36"
         style="fill:#56c5a8;fill-opacity:1;fill-rule:nonzero;stroke:none" /></g></g></svg>