<?xml version="1.0" encoding="utf-8"?>
<!-- Generator: Adobe Illustrator 16.0.0, SVG Export Plug-In . SVG Version: 6.00 Build 0)  -->
<!DOCTYPE svg PUBLIC "-//W3C//DTD SVG 1.1//EN" "http://www.w3.org/Graphics/SVG/1.1/DTD/svg11.dtd">
<svg version="1.1" id="Layer_1" xmlns="http://www.w3.org/2000/svg" xmlns:xlink="http://www.w3.org/1999/xlink" x="0px" y="0px"
	 width="283.46px" height="79.37px" viewBox="0 0 283.46 79.37" enable-background="new 0 0 283.46 79.37" xml:space="preserve">
<g>
	<path fill="#3063CF" d="M75.024,42.879h3.669v1.02c0,1.189,1.598,1.801,3.397,1.801c1.731,0,2.955-0.611,2.955-1.766
		c0-1.462-1.63-1.836-3.939-2.686c-2.55-0.882-5.47-2.071-5.47-5.367c0-3.669,3.668-4.96,6.828-4.96c2.514,0,6.25,0.985,6.25,3.601
		v2.209h-3.702v-0.986c0-0.882-1.019-1.426-2.548-1.426c-1.358,0-2.514,0.476-2.514,1.562c0,1.427,1.697,2.004,3.634,2.582
		c2.651,0.849,5.776,1.937,5.776,5.334c0,3.499-3.329,5.266-7.304,5.266c-3.16,0-7.033-1.359-7.033-4.179V42.879z"/>
	<path fill="#3063CF" d="M93.909,52.222V35.305c0-0.478-0.271-0.748-0.748-0.748h-1.937v-3.228h4.451
		c1.598,0,2.142,0.747,2.142,1.63v0.103c0,0.407-0.033,0.781-0.033,0.781h0.066c0,0,1.496-2.922,5.571-2.922
		c4.688,0,7.679,3.703,7.679,9.071c0,5.504-3.363,9.07-7.916,9.07c-3.431,0-4.993-2.446-4.993-2.446h-0.068
		c0,0,0.102,0.611,0.102,1.496v4.109h2.513v3.228h-9.342v-3.228H93.909z M102.403,45.428c2.377,0,4.349-1.937,4.349-5.369
		c0-3.295-1.768-5.435-4.315-5.435c-2.242,0-4.349,1.631-4.349,5.469C98.088,42.777,99.582,45.428,102.403,45.428z"/>
	<path fill="#3063CF" d="M122.646,30.921c5.302,0,9.547,3.771,9.547,9.071c0,5.334-4.245,9.07-9.514,9.07
		c-5.299,0-9.546-3.736-9.546-9.07C113.133,34.692,117.38,30.921,122.646,30.921z M122.679,45.395c2.786,0,5.13-2.177,5.13-5.402
		c0-3.193-2.344-5.402-5.13-5.402c-2.819,0-5.163,2.209-5.163,5.402C117.516,43.218,119.859,45.395,122.679,45.395z"/>
	<path fill="#3063CF" d="M134.567,45.428h2.513V35.305c0-0.478-0.272-0.748-0.748-0.748h-1.936v-3.228h4.52
		c1.527,0,2.309,0.644,2.309,2.104v1.021c0,0.646-0.068,1.086-0.068,1.086h0.068c0.781-2.479,2.854-4.45,5.504-4.45
		c0.407,0,0.781,0.068,0.781,0.068v4.247c0,0-0.442-0.067-1.053-0.067c-3.5,0-5.062,3.057-5.062,6.317v3.772h2.479v3.227h-9.307
		V45.428z"/>
	<path fill="#3063CF" d="M152.052,34.557h-2.649v-3.228h2.785v-4.722h4.178v4.722h3.941v3.228h-3.941v7.304
		c0,2.955,2.242,3.362,3.466,3.362c0.476,0,0.781-0.033,0.781-0.033v3.533c0,0-0.544,0.103-1.325,0.103
		c-2.447,0-7.235-0.713-7.235-6.523V34.557z"/>
	<path fill="#3063CF" d="M163.87,27.762h-2.685v-3.228h6.967v18.345c0,1.562,0.339,2.379,1.765,2.379
		c0.476,0,0.816-0.035,0.816-0.035v3.466c0,0-0.713,0.102-1.562,0.102c-2.753,0-5.301-0.917-5.301-5.638V27.762z"/>
	<path fill="#3063CF" d="M181.977,30.921c5.3,0,9.547,3.771,9.547,9.071c0,5.334-4.247,9.07-9.514,9.07
		c-5.299,0-9.546-3.736-9.546-9.07C172.464,34.692,176.711,30.921,181.977,30.921z M182.01,45.395c2.786,0,5.132-2.177,5.132-5.402
		c0-3.193-2.346-5.402-5.132-5.402c-2.819,0-5.163,2.209-5.163,5.402C176.847,43.218,179.19,45.395,182.01,45.395z"/>
	<path fill="#3063CF" d="M194.073,27.762h-2.649v-3.228h6.965v7.508c0,0.85-0.068,1.461-0.068,1.461h0.068
		c0,0,1.562-2.582,5.198-2.582c4.688,0,7.713,3.703,7.713,9.071c0,5.504-3.397,9.07-7.986,9.07c-3.77,0-5.163-2.752-5.163-2.752
		h-0.067c0,0,0.067,0.611,0.067,1.291v1.053h-4.077V27.762z M202.567,45.428c2.379,0,4.382-1.937,4.382-5.369
		c0-3.295-1.767-5.435-4.313-5.435c-2.242,0-4.349,1.631-4.349,5.469C198.287,42.777,199.679,45.428,202.567,45.428z"/>
	<path fill="#3063CF" d="M213.365,42.879h3.67v1.02c0,1.189,1.598,1.801,3.396,1.801c1.733,0,2.957-0.611,2.957-1.766
		c0-1.462-1.631-1.836-3.941-2.686c-2.548-0.882-5.471-2.071-5.471-5.367c0-3.669,3.669-4.96,6.829-4.96
		c2.515,0,6.25,0.985,6.25,3.601v2.209h-3.702v-0.986c0-0.882-1.019-1.426-2.548-1.426c-1.358,0-2.514,0.476-2.514,1.562
		c0,1.427,1.697,2.004,3.634,2.582c2.651,0.849,5.776,1.937,5.776,5.334c0,3.499-3.329,5.266-7.304,5.266
		c-3.16,0-7.033-1.359-7.033-4.179V42.879z"/>
	<path fill="#3063CF" d="M231.91,34.557h-2.649v-3.228h2.786v-4.722h4.179v4.722h3.941v3.228h-3.941v7.304
		c0,2.955,2.243,3.362,3.466,3.362c0.476,0,0.781-0.033,0.781-0.033v3.533c0,0-0.543,0.103-1.324,0.103
		c-2.447,0-7.238-0.713-7.238-6.523V34.557z"/>
	<path fill="#3063CF" d="M251.171,30.921c4.993,0,7.713,3.636,7.713,8.222c0,0.51-0.103,1.461-0.103,1.461h-11.992
		c0.271,3.193,2.582,4.824,5.198,4.824c2.819,0,5.026-1.835,5.026-1.835l1.666,3.058c0,0-2.649,2.412-6.998,2.412
		c-5.742,0-9.309-4.145-9.309-9.07C242.373,34.657,245.973,30.921,251.171,30.921z M254.433,38.056
		c-0.068-2.378-1.529-3.806-3.363-3.806c-2.207,0-3.771,1.529-4.179,3.806H254.433z"/>
	<path fill="#3063CF" d="M261.358,45.428h2.516V35.305c0-0.478-0.272-0.748-0.748-0.748h-1.937v-3.228h4.518
		c1.529,0,2.311,0.644,2.311,2.104v1.021c0,0.646-0.068,1.086-0.068,1.086h0.068c0.781-2.479,2.854-4.45,5.504-4.45
		c0.407,0,0.781,0.068,0.781,0.068v4.247c0,0-0.442-0.067-1.052-0.067c-3.499,0-5.063,3.057-5.063,6.317v3.772h2.479v3.227h-9.309
		V45.428z"/>
</g>
<g>
	<g>
		<g opacity="0.2">
			<path d="M68.191,40.409c0,16.435-13.326,29.759-29.763,29.759c-16.44,0-29.767-13.324-29.767-29.759
				c0-16.441,13.326-29.769,29.767-29.769C54.866,10.641,68.191,23.968,68.191,40.409z"/>
		</g>
		<g>
			<path fill="#3063CF" d="M68.191,40.069c0,16.435-13.326,29.759-29.763,29.759c-16.44,0-29.767-13.324-29.767-29.759
				c0-16.441,13.326-29.769,29.767-29.769C54.866,10.3,68.191,23.628,68.191,40.069z"/>
		</g>
	</g>
	<g>
		<g opacity="0.2">
			<path d="M44.566,49.84c0,0-0.275-0.566,0.814-0.494c2.018,0.119,5.295,0.082,7.619-1.742c2.307-1.828,4.556-5.029,4.438-9.185
				c0,0-0.362-1.107,0.261-1.107c0.609,0,0.885,0.092,1.93,2.097c1.046,2.036,4.442,8.71,0.117,12.556
				C55.335,55.885,48.469,56.168,44.566,49.84"/>
			<path d="M52.36,42.99c0,0,2.018-0.367,0.771,0.533c-1.235,0.9-2.337,2.598-2.337,3.633c0,1.033-0.433,1.105-1.451,1.393
				c-1.028,0.287-3.034,0.287-3.906,0.07c-0.87-0.205-0.94-0.512-0.681-1.127C45.002,46.869,47.733,43.604,52.36,42.99"/>
			<path d="M44.235,33.436c0,0-0.741-0.491,0.04-0.82c0.771-0.337,2.02-0.828,4.11-0.979c0,0,1.175-0.374,1.771,0.703
				c0.606,1.065,3.451,2.733,4.435,3.059c0.5,0.165,1.337,0.627-0.041,0.678C53.027,36.115,47.733,36.38,44.235,33.436"/>
			<path d="M44.086,32.013c0,0-0.896,0.595-0.955-0.172c-0.059-0.759-0.725-6.747,6.354-7.121
				c7.098-0.379,14.674,4.666,13.294,14.364c0,0-0.059,0.931-0.362,0.931c-0.305,0-0.41-0.614-0.786-1.093
				C59.715,36.38,53.099,28.373,44.086,32.013"/>
			<path d="M43.916,38.464c0-0.708-0.588-1.281-1.318-1.281c-0.597,0-1.095,0.382-1.257,0.91c0.358,0.49,0.623,1.012,0.781,1.564
				c0.146,0.059,0.308,0.092,0.476,0.092C43.328,39.75,43.916,39.172,43.916,38.464"/>
			<path d="M42.597,43.799c0.73,0,1.318-0.572,1.318-1.281c0-0.711-0.588-1.285-1.318-1.285c-0.168,0-0.329,0.033-0.476,0.092
				c-0.158,0.547-0.423,1.074-0.781,1.568C41.502,43.414,42,43.799,42.597,43.799"/>
			<path d="M44.819,50.877L44.3,50.205c-0.395-0.889-0.309-1.508-0.268-2.424c-1.565-0.529-3.671-1.545-4.66-2.777
				c-0.688,0.502-1.528,0.92-2.478,1.232C38.46,48.727,42.006,50.486,44.819,50.877"/>
			<path d="M42.818,30.286l-0.989,0.134c-2.814,0.385-3.445,1.835-5.01,4.326l0,0c0.95,0.31,1.789,0.731,2.477,1.233
				c0.987-1.233,1.962-2.742,3.523-3.274C42.778,31.792,42.424,31.17,42.818,30.286"/>
			<path d="M35.131,46.348c3.638-0.938,6.209-3.207,6.209-5.854c0-2.652-2.571-4.917-6.209-5.854
				c-1.271-4.7-6.397-6.022-8.734-5.799c-3.789,0.36,1.957,1.242,3.6,2.143c1.475,0.803,2.564,1.997,3.178,3.296
				c-0.571-0.064-1.157-0.1-1.759-0.1c-0.658,0-1.304,0.042-1.928,0.12c-2.049-2.669-5.648-3.467-7.502-3.289
				c-3.789,0.359,1.958,1.241,3.602,2.142c0.762,0.416,1.419,0.935,1.968,1.523c-1.348,0.359-2.542,0.906-3.505,1.583
				c-1.489,0.46-2.579,1.855-2.579,3.489v1.188c0,1.295,0.686,2.436,1.709,3.082c1.074,1.01,2.588,1.807,4.375,2.287
				c-0.549,0.586-1.207,1.107-1.968,1.525c-1.645,0.895-7.391,1.779-3.602,2.143c1.854,0.176,5.453-0.617,7.502-3.293
				c0.624,0.08,1.271,0.121,1.928,0.121c0.603,0,1.185-0.033,1.759-0.1c-0.614,1.305-1.703,2.492-3.178,3.299
				c-1.644,0.898-7.389,1.777-3.6,2.141C28.735,52.367,33.86,51.039,35.131,46.348z"/>
			<path d="M22.38,44.24c0.251,0.066-1.661-1.73-1.661-3.303V39.75c0-1.372,0.769-2.574,1.895-3.193
				c-0.102-0.045-0.205-0.089-0.306-0.14c-3.051-1.456-5.568-4.738-7.775-1.029c-0.649,1.087-0.762,3.006-0.476,4.953
				c-0.286,1.946-0.173,3.862,0.476,4.958c2.207,3.707,4.724,0.424,7.775-1.031C22.325,44.26,22.349,44.254,22.38,44.24"/>
		</g>
		<g>
			<g>
				<g>
					<path fill="#FFFFFF" d="M44.566,50.172c0,0-0.275-0.566,0.814-0.494c2.018,0.119,5.295,0.08,7.619-1.744
						c2.307-1.826,4.556-5.027,4.438-9.184c0,0-0.362-1.107,0.261-1.107c0.609,0,0.885,0.092,1.93,2.097
						c1.046,2.036,4.442,8.709,0.117,12.557C55.335,56.215,48.469,56.5,44.566,50.172"/>
					<path fill="#FFFFFF" d="M52.36,43.32c0,0,2.018-0.367,0.771,0.533c-1.235,0.9-2.337,2.6-2.337,3.635
						c0,1.031-0.433,1.104-1.451,1.391c-1.028,0.287-3.034,0.287-3.906,0.07c-0.87-0.203-0.94-0.51-0.681-1.127
						C45.002,47.201,47.733,43.936,52.36,43.32"/>
					<path fill="#FFFFFF" d="M44.235,33.766c0,0-0.741-0.491,0.04-0.82c0.771-0.337,2.02-0.828,4.11-0.979
						c0,0,1.175-0.374,1.771,0.703c0.606,1.065,3.451,2.733,4.435,3.059c0.5,0.165,1.337,0.627-0.041,0.678
						C53.027,36.446,47.733,36.711,44.235,33.766"/>
					<path fill="#FFFFFF" d="M44.086,32.343c0,0-0.896,0.595-0.955-0.172c-0.059-0.759-0.725-6.747,6.354-7.121
						c7.098-0.379,14.674,4.666,13.294,14.364c0,0-0.059,0.931-0.362,0.931c-0.305,0-0.41-0.614-0.786-1.093
						C59.715,36.711,53.099,28.704,44.086,32.343"/>
					<path fill="#FFFFFF" d="M43.916,38.795c0-0.708-0.588-1.281-1.318-1.281c-0.597,0-1.095,0.382-1.257,0.91
						c0.358,0.49,0.623,1.012,0.781,1.564c0.146,0.059,0.308,0.092,0.476,0.092C43.328,40.08,43.916,39.503,43.916,38.795"/>
					<path fill="#FFFFFF" d="M42.597,44.131c0.73,0,1.318-0.572,1.318-1.281c0-0.711-0.588-1.285-1.318-1.285
						c-0.168,0-0.329,0.033-0.476,0.092c-0.158,0.547-0.423,1.074-0.781,1.566C41.502,43.744,42,44.131,42.597,44.131"/>
					<path fill="#FFFFFF" d="M44.819,51.209L44.3,50.535c-0.395-0.889-0.309-1.508-0.268-2.422c-1.565-0.531-3.671-1.545-4.66-2.779
						c-0.688,0.502-1.528,0.922-2.478,1.234C38.46,49.059,42.006,50.818,44.819,51.209"/>
					<path fill="#FFFFFF" d="M42.818,30.617l-0.989,0.134c-2.814,0.385-3.445,1.835-5.01,4.326l0,0
						c0.95,0.31,1.789,0.731,2.477,1.233c0.987-1.233,1.962-2.742,3.523-3.274C42.778,32.123,42.424,31.501,42.818,30.617"/>
					<path fill="#FFFFFF" d="M35.131,46.68c3.638-0.938,6.209-3.209,6.209-5.855c0-2.652-2.571-4.917-6.209-5.854
						c-1.271-4.7-6.397-6.022-8.734-5.799c-3.789,0.36,1.957,1.242,3.6,2.143c1.475,0.803,2.564,1.997,3.178,3.296
						c-0.571-0.064-1.157-0.1-1.759-0.1c-0.658,0-1.304,0.042-1.928,0.12c-2.049-2.669-5.648-3.467-7.502-3.289
						c-3.789,0.359,1.958,1.241,3.602,2.142c0.762,0.416,1.419,0.935,1.968,1.523c-1.348,0.359-2.542,0.906-3.505,1.583
						c-1.489,0.46-2.579,1.855-2.579,3.489v1.188c0,1.295,0.686,2.436,1.709,3.082c1.074,1.01,2.588,1.807,4.375,2.287
						c-0.549,0.586-1.207,1.107-1.968,1.525c-1.645,0.896-7.391,1.779-3.602,2.143c1.854,0.176,5.453-0.617,7.502-3.291
						c0.624,0.078,1.271,0.119,1.928,0.119c0.603,0,1.185-0.033,1.759-0.1c-0.614,1.305-1.703,2.494-3.178,3.299
						c-1.644,0.898-7.389,1.777-3.6,2.143C28.735,52.697,33.86,51.371,35.131,46.68z"/>
					<path fill="#FFFFFF" d="M22.38,44.57c0.251,0.066-1.661-1.729-1.661-3.303V40.08c0-1.372,0.769-2.574,1.895-3.193
						c-0.102-0.045-0.205-0.089-0.306-0.14c-3.051-1.456-5.568-4.738-7.775-1.029c-0.649,1.087-0.762,3.006-0.476,4.953
						c-0.286,1.948-0.173,3.864,0.476,4.959c2.207,3.707,4.724,0.424,7.775-1.033C22.325,44.59,22.349,44.584,22.38,44.57"/>
				</g>
			</g>
		</g>
	</g>
</g>
</svg>
